 <svg version="1.0" xmlns="http://www.w3.org/2000/svg" width="700.000000pt" height="707.000000pt" viewBox="0 0 700.000000 707.000000" preserveAspectRatio="xMidYMid meet">
<metadata>
Created by potrace 1.12, written by Peter Selinger 2001-2015
</metadata>
<g transform="translate(0.000000,707.000000) scale(0.100000,-0.100000)" fill="#000000" stroke="none">
<path d="M3516 6893 c-50 -2 -96 -9 -104 -16 -8 -6 -42 -15 -76 -18 -34 -4
-99 -14 -146 -23 -47 -10 -136 -25 -198 -35 -62 -10 -120 -25 -130 -33 -38
-33 -120 -65 -179 -71 -44 -5 -75 -15 -109 -37 -26 -16 -53 -30 -58 -30 -16 0
-314 -149 -321 -160 -8 -14 -108 -60 -128 -60 -26 0 -101 -57 -203 -154 -51
-50 -107 -95 -124 -100 -42 -15 -151 -116 -193 -178 -44 -67 -84 -105 -144
-137 -39 -22 -54 -38 -88 -102 -44 -84 -67 -114 -170 -227 -39 -42 -77 -93
-85 -112 -7 -19 -28 -57 -45 -85 -53 -84 -93 -167 -110 -227 -8 -32 -27 -79
-40 -104 -14 -26 -25 -53 -25 -60 0 -8 -16 -45 -36 -84 -19 -38 -38 -82 -40
-97 -3 -16 -9 -32 -15 -37 -5 -6 -9 -22 -9 -37 0 -15 -4 -31 -10 -34 -5 -3
-10 -16 -10 -29 0 -12 -7 -31 -15 -42 -8 -10 -15 -40 -15 -66 0 -26 -4 -49 -9
-52 -10 -6 -14 -33 -31 -181 -6 -55 -16 -125 -23 -155 -14 -62 -16 -472 -3
-560 4 -30 10 -89 13 -130 2 -41 11 -83 19 -94 8 -11 14 -34 14 -51 0 -17 4
-35 9 -40 5 -6 11 -28 14 -50 14 -104 39 -202 66 -258 16 -34 35 -82 41 -107
7 -25 36 -92 65 -150 29 -58 60 -132 69 -165 24 -82 61 -150 115 -215 26 -30
57 -75 69 -100 12 -25 42 -72 67 -105 24 -33 64 -90 89 -126 24 -36 84 -104
133 -150 49 -46 104 -106 123 -133 43 -60 46 -63 197 -183 106 -84 196 -150
261 -188 9 -5 40 -29 68 -52 82 -68 226 -152 260 -153 30 0 155 -48 176 -67
10 -9 39 -24 65 -33 107 -39 137 -52 176 -70 23 -11 51 -20 64 -20 12 0 37 -6
55 -14 41 -18 156 -46 226 -55 28 -4 57 -12 64 -19 7 -7 38 -12 70 -12 32 0
67 -5 78 -12 15 -10 27 -10 54 0 26 10 41 10 56 2 31 -16 329 -23 455 -10 61
6 143 14 184 16 42 3 85 12 98 21 16 11 38 14 73 11 35 -4 53 -1 61 8 6 8 21
14 33 14 11 0 41 7 66 16 24 8 67 18 95 21 27 3 57 11 65 17 8 7 35 21 60 31
25 11 62 29 82 42 21 13 41 23 46 23 5 0 21 14 37 30 19 19 50 36 85 46 71 20
115 40 170 78 60 40 138 115 155 147 9 16 47 42 107 73 51 26 100 54 108 61 8
7 46 27 83 45 49 24 76 45 97 74 72 104 164 159 284 170 37 4 85 15 105 25 39
20 141 122 141 141 0 7 45 58 100 115 55 57 100 109 100 117 0 30 71 157 120
213 50 58 90 123 90 145 0 6 8 28 19 48 10 20 35 70 55 110 20 39 47 118 61
173 13 56 33 120 44 143 11 23 26 77 32 121 6 44 17 97 24 118 7 21 11 46 8
57 -3 11 2 41 10 67 18 52 45 315 49 458 3 112 -12 356 -22 370 -5 6 -10 37
-13 70 -4 56 -12 111 -38 245 -16 81 -38 160 -59 205 -10 22 -24 72 -31 110
-6 39 -15 75 -19 80 -4 6 -15 37 -25 70 -9 33 -23 71 -30 85 -44 87 -80 148
-100 170 -22 25 -95 164 -110 210 -4 12 -23 43 -42 69 -62 83 -107 142 -145
189 -21 26 -38 51 -38 57 0 6 -25 35 -56 65 -50 49 -87 96 -119 150 -12 20
-56 57 -187 155 -47 36 -95 81 -107 100 -11 19 -35 40 -53 48 -18 8 -39 21
-47 30 -7 10 -22 17 -32 17 -10 0 -71 26 -136 58 -132 65 -168 80 -232 93 -25
5 -60 18 -78 29 -19 11 -43 20 -54 20 -10 0 -27 4 -37 9 -47 24 -101 31 -235
31 -94 0 -147 4 -147 10 0 10 168 97 229 118 17 6 31 18 31 26 0 17 -34 31
-50 21 -6 -4 -22 0 -35 9 -13 9 -40 16 -58 16 -21 0 -41 8 -52 20 -10 11 -29
20 -42 20 -13 0 -40 7 -60 15 -19 8 -52 15 -72 15 -21 0 -46 6 -56 14 -12 8
-32 12 -51 9 -19 -3 -45 1 -65 11 -17 9 -53 16 -79 16 -25 0 -51 5 -58 12 -7
7 -33 11 -62 9 -32 -2 -59 3 -73 12 -18 11 -72 16 -237 19 -118 3 -255 3 -304
1z m639 -554 c44 -11 98 -24 120 -28 22 -5 83 -29 135 -54 52 -26 102 -47 111
-47 9 0 22 -7 29 -15 7 -8 20 -15 30 -15 21 0 150 -48 167 -62 7 -5 16 -7 21
-4 5 3 33 -10 63 -29 29 -19 59 -35 66 -35 21 0 116 -49 152 -79 33 -27 33
-28 20 -66 -8 -21 -37 -63 -64 -94 -39 -44 -83 -122 -199 -356 -81 -165 -154
-307 -161 -315 -7 -8 -32 -51 -55 -95 -23 -44 -48 -87 -55 -95 -7 -8 -23 -35
-35 -60 -12 -25 -32 -58 -45 -75 -12 -16 -24 -49 -27 -72 -4 -24 -15 -62 -27
-86 -12 -24 -21 -48 -21 -54 0 -6 -11 -26 -24 -45 -13 -19 -55 -97 -95 -173
-39 -76 -77 -145 -84 -154 -8 -9 -29 -45 -47 -81 -47 -92 -46 -91 -60 -134 -7
-22 -25 -57 -40 -78 -15 -20 -30 -57 -34 -80 -8 -47 -64 -158 -101 -198 -26
-30 -66 -105 -91 -175 -19 -54 -70 -125 -90 -125 -6 0 -17 14 -23 32 -6 17
-18 39 -27 49 -8 9 -16 27 -17 40 -3 27 -28 70 -68 114 -25 28 -59 108 -59
139 0 18 -57 125 -87 161 -62 76 -84 111 -95 149 -6 23 -27 70 -46 106 -19 36
-45 93 -58 128 -14 35 -35 85 -49 112 -14 27 -25 57 -25 67 0 9 -13 31 -29 48
-16 16 -63 95 -103 175 -41 80 -90 168 -109 195 -20 29 -48 92 -67 150 -22 72
-41 112 -67 142 -19 23 -35 50 -35 61 0 11 -11 33 -23 49 -25 29 -43 60 -75
128 -24 50 -95 116 -161 150 -55 27 -69 50 -90 141 -35 153 -47 175 -74 132
-15 -24 -16 -86 -3 -126 5 -14 3 -28 -4 -37 -7 -9 -8 -15 0 -20 18 -11 11 -25
-23 -45 -19 -11 -39 -32 -45 -46 -17 -35 -15 -215 2 -261 27 -76 36 -110 36
-136 0 -14 5 -29 10 -32 6 -3 10 -15 10 -25 0 -11 11 -43 24 -72 14 -29 31
-73 39 -98 17 -51 89 -252 105 -290 6 -14 31 -44 56 -68 25 -23 46 -50 46 -60
0 -9 16 -48 35 -85 19 -38 35 -76 35 -85 0 -9 7 -26 15 -36 8 -11 15 -26 15
-34 0 -8 9 -24 21 -36 30 -30 69 -94 69 -113 0 -8 16 -45 35 -82 19 -36 46
-97 60 -136 45 -119 97 -227 146 -301 26 -39 55 -88 64 -110 41 -93 79 -170
93 -183 23 -23 69 -132 92 -220 15 -56 34 -97 65 -139 47 -64 105 -173 105
-195 0 -8 7 -21 17 -28 21 -18 103 -194 110 -237 6 -37 20 -49 36 -33 7 7 10
41 8 91 -3 76 13 174 31 195 4 5 8 17 8 27 0 21 35 95 54 113 31 31 53 35 80
14 15 -12 26 -30 26 -44 0 -14 10 -45 22 -70 29 -60 18 -80 -43 -80 -48 0 -47
-3 -33 76 4 24 2 39 -6 44 -21 13 -29 -9 -31 -95 -2 -96 -6 -93 90 -68 41 11
45 10 62 -11 15 -18 16 -27 8 -43 -10 -19 -18 -20 -79 -15 -59 5 -70 3 -86
-14 -24 -27 -11 -34 57 -31 55 4 59 2 69 -22 13 -35 26 -33 46 7 10 17 25 44
36 60 10 15 27 40 38 56 30 45 156 293 170 335 15 48 88 197 105 216 25 28
146 275 157 320 6 25 32 88 58 140 25 52 55 118 65 145 10 28 31 64 46 80 30
34 60 90 79 150 7 22 20 49 30 60 33 38 109 200 126 270 16 66 34 108 89 200
13 22 24 47 24 56 1 9 10 27 21 41 10 14 35 56 54 94 20 38 50 80 67 94 25 22
33 38 45 100 13 72 84 240 110 261 7 6 30 45 50 87 21 43 47 91 60 108 23 31
77 142 89 182 9 32 30 27 49 -12 15 -33 63 -76 83 -76 11 0 111 -105 140 -145
11 -17 32 -54 47 -83 15 -29 41 -62 59 -73 18 -12 46 -41 62 -65 17 -24 33
-44 37 -44 4 0 19 -22 32 -49 14 -27 39 -69 55 -92 16 -24 40 -69 54 -100 14
-31 29 -59 35 -63 6 -3 13 -21 17 -39 7 -34 41 -118 81 -202 13 -28 24 -57 24
-65 0 -25 30 -102 49 -129 10 -14 21 -46 24 -71 3 -25 10 -70 16 -100 25 -145
30 -209 31 -387 0 -106 -4 -212 -10 -235 -5 -24 -14 -79 -20 -123 -5 -44 -12
-96 -16 -115 -6 -39 -83 -250 -96 -265 -4 -5 -8 -21 -8 -36 0 -33 -24 -91 -43
-108 -8 -6 -18 -24 -22 -39 -6 -24 -23 -54 -75 -132 -9 -14 -25 -52 -35 -85
-11 -33 -33 -75 -52 -96 -18 -19 -41 -55 -52 -80 -10 -24 -40 -64 -66 -89 -26
-25 -55 -62 -66 -83 -11 -20 -26 -37 -35 -37 -13 0 -15 11 -10 73 4 39 9 116
12 170 6 105 13 116 49 70 12 -14 27 -23 33 -19 15 9 4 104 -15 134 -8 13 -13
25 -11 26 2 2 11 7 21 12 15 9 17 31 18 226 1 118 -2 221 -6 228 -10 16 -6
402 4 415 5 5 11 260 13 565 4 446 2 574 -9 650 -8 52 -17 133 -20 180 -5 84
-25 143 -56 169 -9 6 -39 12 -69 11 -61 -1 -167 12 -184 23 -7 4 -12 32 -11
67 0 61 -11 88 -32 76 -6 -4 -11 -36 -11 -72 0 -56 -3 -69 -22 -85 -13 -10
-34 -18 -47 -19 -38 0 -108 -63 -115 -104 -4 -19 -13 -39 -21 -46 -9 -8 -13
-21 -9 -36 4 -14 0 -34 -9 -47 -8 -12 -17 -38 -20 -57 -4 -19 -12 -63 -18 -97
-10 -50 -10 -65 0 -77 20 -24 34 -19 27 8 -3 14 -2 28 4 31 5 3 10 18 10 32 0
13 6 37 14 51 7 15 18 41 23 57 4 17 15 30 23 30 20 0 24 -38 10 -94 -28 -105
-21 -151 17 -120 13 11 17 10 29 -6 18 -24 14 -37 -16 -52 -47 -23 -55 -57
-52 -227 2 -110 4 -122 25 -145 47 -51 49 -70 42 -373 -3 -159 -10 -287 -16
-293 -5 -5 -28 -16 -52 -25 l-42 -16 -5 -839 c-4 -608 -8 -846 -17 -860 -19
-34 -67 -71 -165 -129 -86 -51 -127 -77 -218 -141 -65 -45 -105 -62 -245 -105
-77 -24 -154 -53 -171 -66 -17 -13 -64 -34 -103 -48 -40 -14 -96 -39 -124 -55
-32 -18 -80 -34 -121 -41 -38 -6 -94 -20 -125 -31 -84 -31 -129 -41 -210 -46
-43 -3 -84 -11 -98 -20 -19 -13 -52 -15 -197 -11 -104 2 -180 9 -188 15 -7 6
-31 13 -53 16 -96 13 -222 50 -286 83 -14 7 -29 11 -32 8 -3 -3 -32 8 -64 24
-32 17 -86 38 -119 47 -97 28 -202 90 -225 133 -7 13 -27 30 -43 38 -39 19
-75 50 -104 91 l-22 31 -1 724 c0 397 -4 786 -9 863 -5 77 -12 235 -16 350 -3
116 -8 217 -11 225 -2 8 -3 148 -2 310 4 425 4 439 0 730 -3 247 -11 320 -32
320 -5 0 -9 -44 -9 -97 0 -188 -13 -415 -22 -398 -5 8 -11 39 -14 68 -7 97 -9
107 -19 105 -5 -2 -10 -16 -10 -33 0 -20 -6 -31 -17 -33 -21 -4 -21 -5 -19
213 2 168 -15 274 -56 350 -31 58 -62 83 -101 80 -25 -1 -44 -15 -90 -65 -31
-34 -65 -76 -74 -93 -10 -17 -24 -35 -33 -39 -18 -11 -20 -28 -3 -28 12 0 86
76 135 138 41 52 69 41 39 -16 -16 -30 -147 -160 -185 -184 -24 -14 -25 -18
-22 -119 3 -121 -3 -156 -30 -164 -35 -11 -51 -50 -51 -122 0 -58 5 -79 37
-146 l37 -77 -6 -658 c-4 -361 -9 -778 -12 -927 -6 -299 -6 -299 57 -428 32
-63 39 -89 39 -135 0 -76 -11 -94 -42 -65 -13 12 -39 28 -59 36 -31 13 -42 27
-74 94 -20 43 -41 85 -46 93 -5 8 -19 35 -32 60 -13 25 -36 63 -50 84 -15 22
-30 51 -33 65 -5 23 -48 112 -145 301 -16 30 -29 61 -29 68 0 8 -6 28 -14 45
-67 152 -116 654 -87 902 6 50 14 122 18 161 4 39 13 77 19 85 7 8 14 32 17
54 10 72 24 119 57 190 18 39 41 104 51 145 11 41 33 94 49 118 17 23 30 51
30 62 0 10 10 31 23 47 46 58 69 95 83 135 19 54 29 65 84 93 39 20 48 31 59
66 15 51 94 170 145 218 20 19 36 40 36 46 0 6 36 46 81 90 44 44 87 92 94
106 9 16 29 30 55 38 28 8 44 20 50 37 6 14 24 37 42 52 50 42 122 92 133 92
5 0 28 16 50 36 149 134 184 154 337 194 62 16 124 32 138 36 14 4 39 17 57
30 17 13 39 24 48 24 9 0 30 7 46 16 17 8 38 14 47 12 9 -1 24 2 32 7 8 5 34
12 57 17 24 4 62 12 86 16 23 5 49 12 57 17 8 5 51 13 95 17 44 5 116 13 160
18 44 5 114 14 155 18 41 5 156 9 255 10 153 2 192 -1 260 -19z m1543 -1244
c7 -15 8 -33 3 -47 -9 -24 -9 -25 -30 33 -16 43 8 55 27 14z m64 -417 c3 -61
3 -122 0 -135 -7 -38 -22 -26 -23 20 0 23 -4 64 -8 91 -10 61 -3 136 14 136 9
0 14 -32 17 -112z m-3218 -33 c3 -8 1 -15 -4 -15 -6 0 -10 7 -10 15 0 8 2 15
4 15 2 0 6 -7 10 -15z m-374 -490 c0 -202 -2 -370 -5 -373 -10 -10 -13 4 -16
68 -3 80 12 682 18 677 2 -2 3 -170 3 -372z m3554 259 c9 -23 24 -445 19 -549
-7 -171 -15 -255 -23 -255 -15 0 -17 172 -3 204 21 46 16 94 -12 128 l-25 30
0 222 c0 123 3 226 7 229 11 12 31 7 37 -9z m-3679 -104 c0 -18 -6 -35 -12
-37 -9 -3 -13 8 -13 37 0 28 4 40 12 38 7 -3 12 -19 13 -38z m-10 -178 c4 -70
2 -113 -5 -117 -6 -4 -10 -64 -10 -155 0 -88 -4 -151 -10 -155 -6 -4 -11 51
-12 157 -4 237 1 371 15 380 6 4 13 6 14 4 2 -1 5 -53 8 -114z m65 -226 c0
-226 -3 -337 -11 -341 -6 -4 -12 -5 -14 -3 -5 4 -19 315 -16 363 0 17 3 89 6
160 6 138 8 155 25 155 7 0 10 -111 10 -334z"></path>
<path d="M2092 5688 c-16 -16 -15 -33 3 -48 8 -7 15 -29 16 -49 1 -38 28 -95
44 -92 13 2 7 59 -11 95 -8 16 -14 46 -14 68 0 39 -15 49 -38 26z"></path>
<path d="M2170 5435 c-10 -12 -10 -18 0 -30 15 -18 30 -11 30 15 0 26 -15 33
-30 15z"></path>
<path d="M2176 5354 c-9 -22 -8 -24 9 -24 8 0 15 9 15 20 0 24 -15 27 -24 4z"></path>
<path d="M2083 5270 c5 -55 11 -79 26 -94 19 -18 21 -18 27 -3 3 10 1 36 -6
60 -6 23 -15 55 -18 71 -4 16 -14 32 -21 34 -12 4 -13 -9 -8 -68z"></path>
<path d="M2172 5296 c1 -10 8 -17 13 -17 15 1 12 24 -3 29 -9 3 -13 -2 -10
-12z"></path>
<path d="M2116 5118 c-19 -60 -12 -118 15 -118 11 0 9 119 -2 126 -5 3 -11 -1
-13 -8z"></path>
<path d="M2120 4972 c0 -10 -5 -23 -11 -29 -13 -13 -1 -65 15 -60 13 4 18 107
5 107 -5 0 -9 -8 -9 -18z"></path>
<path d="M5187 3763 c-8 -16 -7 -152 2 -157 16 -10 30 19 37 77 5 39 3 61 -6
72 -14 16 -26 19 -33 8z"></path>
<path d="M5905 3213 c-9 -129 -17 -574 -10 -592 5 -12 8 -12 23 2 15 15 17 52
19 325 2 169 1 317 -2 330 -11 46 -24 19 -30 -65z"></path>
<path d="M3810 2446 c0 -8 -13 -25 -30 -38 -17 -12 -30 -31 -30 -43 0 -12 -7
-30 -15 -41 -15 -20 -21 -124 -7 -124 15 0 32 24 32 44 0 10 11 34 25 52 14
18 25 41 25 52 0 11 10 32 22 47 16 20 19 32 11 43 -13 22 -33 27 -33 8z"></path>
<path d="M3614 2375 c-4 -9 -2 -21 4 -27 15 -15 44 -1 40 19 -4 23 -36 29 -44
8z"></path>
<path d="M3647 2304 c-14 -14 -7 -35 11 -32 9 2 17 10 17 17 0 16 -18 25 -28
15z"></path>
</g>
</svg>